<?xml version="1.0" encoding="UTF-8" standalone="no"?>
<!-- Created with Inkscape (http://www.inkscape.org/) -->

<svg
   xmlns:dc="http://purl.org/dc/elements/1.1/"
   xmlns:cc="http://creativecommons.org/ns#"
   xmlns:rdf="http://www.w3.org/1999/02/22-rdf-syntax-ns#"
   xmlns:svg="http://www.w3.org/2000/svg"
   xmlns="http://www.w3.org/2000/svg"
   xmlns:sodipodi="http://sodipodi.sourceforge.net/DTD/sodipodi-0.dtd"
   xmlns:inkscape="http://www.inkscape.org/namespaces/inkscape"
   width="85mm"
   height="55mm"
   viewBox="0 0 85 55"
   version="1.1"
   id="svg8"
   inkscape:version="0.92.5 (0.92.5+68)"
   sodipodi:docname="passchek_logo.svg">
  <defs
     id="defs2" />
  <sodipodi:namedview
     id="base"
     pagecolor="#ffffff"
     bordercolor="#666666"
     borderopacity="1.0"
     inkscape:pageopacity="0.0"
     inkscape:pageshadow="2"
     inkscape:zoom="1.9516783"
     inkscape:cx="152.0357"
     inkscape:cy="57.095506"
     inkscape:document-units="mm"
     inkscape:current-layer="layer1"
     showgrid="false"
     inkscape:window-width="1366"
     inkscape:window-height="744"
     inkscape:window-x="0"
     inkscape:window-y="24"
     inkscape:window-maximized="1" />
  <metadata
     id="metadata5">
    <rdf:RDF>
      <cc:Work
         rdf:about="">
        <dc:format>image/svg+xml</dc:format>
        <dc:type
           rdf:resource="http://purl.org/dc/dcmitype/StillImage" />
        <dc:title></dc:title>
      </cc:Work>
    </rdf:RDF>
  </metadata>
  <g
     inkscape:label="Layer 1"
     inkscape:groupmode="layer"
     id="layer1"
     transform="translate(0,-242)">
    <g
       id="g869"
       inkscape:export-xdpi="96"
       inkscape:export-ydpi="96">
      <path
         id="path2410"
         d="m 15.57191,272.24589 v 3.4116 c 0.07204,-0.0142 0.14302,-0.0294 0.211829,-0.0466 0.399661,-0.11116 0.73213,-0.25922 0.99998,-0.44136 l 0.0018,-0.001 0.0014,-9.2e-4 c 0.279794,-0.18295 0.481323,-0.39168 0.614696,-0.62765 l 0.0013,-0.003 0.0019,-0.003 c 0.145236,-0.23859 0.214561,-0.48395 0.214561,-0.75025 0,-0.38555 -0.180734,-0.68989 -0.606617,-0.96672 l -0.0023,-0.002 -0.0023,-0.001 c -0.335539,-0.2323 -0.816651,-0.42451 -1.436351,-0.56789 z"
         style="opacity:1;fill:#3a3afd;fill-opacity:0.89411765;fill-rule:evenodd;stroke:none;stroke-width:1.86499989;stroke-miterlimit:4;stroke-dasharray:none;stroke-opacity:0.89411765"
         inkscape:connector-curvature="0" />
      <path
         id="path2408"
         d="m 14.668873,267.78405 c -0.03435,0.009 -0.06885,0.017 -0.10241,0.0263 l -0.0023,9.2e-4 -0.0027,4.6e-4 c -0.398428,0.0996 -0.735331,0.2424 -1.014712,0.42473 -0.268297,0.18264 -0.47173,0.39284 -0.617905,0.63228 -0.13383,0.23802 -0.19983,0.48467 -0.19983,0.75215 0,0.38642 0.178475,0.69841 0.592243,0.9856 0.326377,0.21165 0.776734,0.39009 1.347603,0.52845 z"
         style="opacity:1;fill:#3a3afd;fill-opacity:0.89411765;fill-rule:evenodd;stroke:none;stroke-width:1.86499989;stroke-miterlimit:4;stroke-dasharray:none;stroke-opacity:0.89411765"
         inkscape:connector-curvature="0" />
      <path
         id="path2406"
         d="m 15.796807,263.25307 c -0.06805,0 -0.149128,0.006 -0.225017,0.01 v 3.48704 c 0.114476,-0.005 0.230224,-0.009 0.348455,-0.009 v 1.2e-4 c 0.293486,0 0.628193,0.0367 1.006753,0.10776 0.379277,0.0711 0.703242,0.15996 0.973963,0.27076 l 0.180108,0.074 -0.358791,0.83615 -0.173336,-0.0696 c -0.214421,-0.0858 -0.485675,-0.15852 -0.811438,-0.21468 l -0.0036,-4.6e-4 -0.004,-9.2e-4 c -0.314192,-0.0674 -0.585055,-0.0997 -0.809655,-0.0997 -0.119319,0 -0.235248,0.003 -0.348455,0.01 v 3.64517 c 0.07194,0.006 0.146032,0.0126 0.21468,0.0189 h 0.392056 c 0.884789,0 1.649135,-0.11948 2.294004,-0.35297 0.652049,-0.23609 1.184292,-0.54262 1.602203,-0.91646 0.433484,-0.38902 0.75121,-0.81733 0.959112,-1.28785 l 4.83e-4,-9.2e-4 v -9.2e-4 c 0.220875,-0.48592 0.329921,-0.97766 0.329921,-1.48185 0,-0.50419 -0.108823,-0.98927 -0.32909,-1.46284 l -8.27e-4,-0.003 -0.0014,-0.002 c -0.207928,-0.48151 -0.524261,-0.90834 -0.956023,-1.28475 l -8.27e-4,-9.2e-4 -9.43e-4,-4.6e-4 c -0.417963,-0.37395 -0.950387,-0.6808 -1.602571,-0.91694 -0.6452,-0.2336 -1.403537,-0.35297 -2.276539,-0.35297 z"
         style="opacity:1;fill:#3a3afd;fill-opacity:0.89411765;fill-rule:evenodd;stroke:none;stroke-width:1.86499989;stroke-miterlimit:4;stroke-dasharray:none;stroke-opacity:0.89411765"
         inkscape:connector-curvature="0" />
      <path
         id="path2404"
         d="m 17.046753,260.91535 -2.3401,1.35105 0.119756,-0.0119 c 0.242476,-0.0243 0.484795,-0.0363 0.727442,-0.0363 0.22929,-0.0112 0.444031,-0.0176 0.64214,-0.0176 v -1.2e-4 c 1.014095,0 1.910366,0.14311 2.686061,0.43827 0.771434,0.2777 1.423495,0.65031 1.946499,1.12306 0.53078,0.46941 0.933405,1.02139 1.196246,1.64616 0.259703,0.60597 0.392056,1.23228 0.392056,1.8688 0,0.64719 -0.132023,1.27965 -0.392056,1.88639 -0.263119,0.61394 -0.664946,1.1641 -1.194346,1.64426 v 4.6e-4 c -0.523068,0.47325 -1.175427,0.85227 -1.947924,1.14195 l -0.0023,9.2e-4 -0.0018,4.6e-4 c -0.294311,0.10577 -0.606022,0.18989 -0.932737,0.25531 0.465667,0.42916 0.726254,0.97453 0.726254,1.57726 0,0.42684 -0.109069,0.84085 -0.319704,1.22262 l -0.0014,0.002 -0.0013,0.002 c -0.210817,0.36894 -0.507028,0.68929 -0.876543,0.95686 -0.373675,0.2706 -0.821379,0.4767 -1.337624,0.6242 -0.134705,0.0385 -0.272826,0.0716 -0.414035,0.0999 v 0.69108 h -0.861217 -0.04016 l 2.226758,1.28557 6.295947,-3.63496 v -10.48334 z m -2.527455,1.45928 -3.76861,2.17579 v 10.48311 l 1.490764,0.86074 0.173812,-0.40596 0.131041,-0.3058 0.309012,0.12344 c 0.205701,0.0823 0.464073,0.15777 0.769974,0.22371 0.318506,0.0546 0.589257,0.0816 0.803358,0.0816 0.03066,0 0.06043,-6.8e-4 0.09065,-0.001 v -3.41992 c -0.778368,-0.17538 -1.415124,-0.43771 -1.907412,-0.80431 l -0.0013,-9.2e-4 -0.0014,-10e-4 c -0.595415,-0.45304 -0.932619,-1.07061 -0.932619,-1.76283 0,-0.42569 0.109374,-0.83504 0.321011,-1.20658 0.210238,-0.38054 0.507192,-0.70877 0.878325,-0.97753 0.373675,-0.27059 0.821377,-0.47658 1.337624,-0.62408 0.09995,-0.0286 0.20227,-0.0534 0.305804,-0.0764 z m -0.779716,14.38466 0.779716,0.45015 v -0.3974 c -0.03028,4.6e-4 -0.06014,10e-4 -0.09065,10e-4 -0.211032,0 -0.441059,-0.0192 -0.689067,-0.0541 z"
         style="opacity:1;fill:#3a3afd;fill-opacity:0.89411765;fill-rule:evenodd;stroke:none;stroke-width:1.86499989;stroke-miterlimit:4;stroke-dasharray:none;stroke-opacity:0.89411765"
         inkscape:connector-curvature="0" />
      <g
         transform="matrix(1.985087,0,0,1.985087,-68.69255,177.52203)"
         id="text817-8-3"
         style="font-style:normal;font-variant:normal;font-weight:normal;font-stretch:normal;font-size:6.3499999px;line-height:125%;font-family:Existence;-inkscape-font-specification:Existence;letter-spacing:0px;word-spacing:0px;fill:#000000;fill-opacity:1;stroke:none;stroke-width:0.13328554px;stroke-linecap:butt;stroke-linejoin:miter;stroke-opacity:1"
         aria-label="passchek">
        <path
           id="path981-6"
           style="font-style:normal;font-variant:normal;font-weight:normal;font-stretch:normal;font-family:Existence;-inkscape-font-specification:Existence;stroke-width:0.13328554px"
           d="m 47.679735,49.122112 v -5.28955 q 0.127,-0.0127 0.254,-0.0127 0.127,-0.0063 0.23495,-0.0063 0.53975,0 0.9398,0.1524 0.4064,0.14605 0.6731,0.38735 0.27305,0.2413 0.4064,0.5588 0.13335,0.31115 0.13335,0.635 0,0.3302 -0.13335,0.64135 -0.13335,0.31115 -0.4064,0.5588 -0.2667,0.2413 -0.6731,0.3937 -0.4064,0.14605 -0.94615,0.14605 -0.06985,0 -0.1397,-0.0064 -0.06985,0 -0.1524,-0.0063 v 1.84785 z m 0.48895,-5.1181 q -0.06985,0 -0.14605,0 -0.06985,0 -0.1524,0.0063 v 3.0734 q 0.0762,0.0063 0.14605,0.0127 0.0762,0 0.14605,0 0.4953,0 0.8636,-0.13335 0.3683,-0.13335 0.6096,-0.34925 0.24765,-0.22225 0.3683,-0.4953 0.127,-0.2794 0.127,-0.5715 0,-0.2921 -0.127,-0.56515 -0.12065,-0.2794 -0.3683,-0.4953 -0.2413,-0.2159 -0.6096,-0.34925 -0.3683,-0.13335 -0.85725,-0.13335 z"
           inkscape:connector-curvature="0" />
        <path
           id="path983-7"
           style="font-style:normal;font-variant:normal;font-weight:normal;font-stretch:normal;font-family:Existence;-inkscape-font-specification:Existence;stroke-width:0.13328554px"
           d="m 51.319873,44.264362 q 0.23495,-0.22225 0.5207,-0.3429 0.28575,-0.127 0.6477,-0.127 0.18415,0 0.381,0.0635 0.2032,0.0635 0.3683,0.2159 0.17145,0.1524 0.2794,0.4064 0.1143,0.24765 0.1143,0.61595 v 2.16535 h -0.1905 v -0.3302 q -0.2286,0.20955 -0.5207,0.3048 -0.28575,0.0889 -0.59055,0.0889 -0.2667,0 -0.51435,-0.0889 -0.2413,-0.0889 -0.42545,-0.24765 -0.18415,-0.1651 -0.29845,-0.3937 -0.10795,-0.23495 -0.10795,-0.5207 0,-0.28575 0.10795,-0.51435 0.10795,-0.2286 0.2921,-0.38735 0.1905,-0.1651 0.4318,-0.24765 0.24765,-0.0889 0.51435,-0.0889 0.3556,0 0.62865,0.127 0.2794,0.12065 0.4826,0.31115 v -0.1778 q 0,-0.3175 -0.09525,-0.52705 -0.0889,-0.2159 -0.2286,-0.3429 -0.1397,-0.13335 -0.31115,-0.18415 -0.1651,-0.05715 -0.3175,-0.05715 -0.32385,0 -0.57785,0.10795 -0.254,0.10795 -0.45085,0.29845 z m 1.00965,2.8702 q 0.31115,0 0.60325,-0.10795 0.29845,-0.1143 0.508,-0.37465 v -1.1049 q -0.20955,-0.26035 -0.4953,-0.38735 -0.2794,-0.13335 -0.61595,-0.13335 -0.2286,0 -0.43815,0.0762 -0.20955,0.06985 -0.3683,0.20955 -0.15875,0.13335 -0.254,0.3302 -0.09525,0.1905 -0.09525,0.4318 0,0.2413 0.09525,0.43815 0.09525,0.19685 0.254,0.33655 0.15875,0.1397 0.3683,0.2159 0.20955,0.06985 0.43815,0.06985 z"
           inkscape:connector-curvature="0" />
        <path
           id="path985-5"
           style="font-style:normal;font-variant:normal;font-weight:normal;font-stretch:normal;font-family:Existence;-inkscape-font-specification:Existence;stroke-width:0.13328554px"
           d="m 54.58536,46.994862 q 0.127,0.0508 0.3048,0.0889 0.18415,0.03175 0.3175,0.03175 0.28575,0 0.51435,-0.05715 0.2286,-0.0635 0.38735,-0.17145 0.1651,-0.10795 0.24765,-0.254 0.0889,-0.14605 0.0889,-0.31115 0,-0.24765 -0.254,-0.41275 -0.24765,-0.17145 -0.7239,-0.254 -0.55245,-0.0889 -0.8509,-0.31115 -0.2921,-0.22225 -0.2921,-0.5461 0,-0.2032 0.1016,-0.381 0.1016,-0.18415 0.28575,-0.3175 0.18415,-0.13335 0.45085,-0.20955 0.2667,-0.0762 0.59055,-0.0762 0.1524,0 0.3556,0.0381 0.2032,0.0381 0.3429,0.09525 l -0.0762,0.1778 q -0.127,-0.0508 -0.31115,-0.08255 -0.1778,-0.0381 -0.31115,-0.0381 -0.28575,0 -0.51435,0.0635 -0.2286,0.05715 -0.3937,0.1651 -0.15875,0.10795 -0.24765,0.254 -0.08255,0.14605 -0.08255,0.31115 0,0.24765 0.24765,0.4191 0.254,0.1651 0.73025,0.24765 0.55245,0.0889 0.84455,0.31115 0.29845,0.22225 0.29845,0.5461 0,0.2032 -0.1016,0.38735 -0.1016,0.1778 -0.28575,0.31115 -0.18415,0.13335 -0.45085,0.20955 -0.2667,0.0762 -0.59055,0.0762 -0.1524,0 -0.3556,-0.0381 -0.2032,-0.0381 -0.3429,-0.09525 z"
           inkscape:connector-curvature="0" />
        <path
           id="path987-3"
           style="font-style:normal;font-variant:normal;font-weight:normal;font-stretch:normal;font-family:Existence;-inkscape-font-specification:Existence;stroke-width:0.13328554px"
           d="m 57.537118,46.994862 q 0.127,0.0508 0.3048,0.0889 0.18415,0.03175 0.3175,0.03175 0.28575,0 0.51435,-0.05715 0.2286,-0.0635 0.38735,-0.17145 0.1651,-0.10795 0.24765,-0.254 0.0889,-0.14605 0.0889,-0.31115 0,-0.24765 -0.254,-0.41275 -0.24765,-0.17145 -0.7239,-0.254 -0.55245,-0.0889 -0.8509,-0.31115 -0.2921,-0.22225 -0.2921,-0.5461 0,-0.2032 0.1016,-0.381 0.1016,-0.18415 0.28575,-0.3175 0.18415,-0.13335 0.45085,-0.20955 0.2667,-0.0762 0.59055,-0.0762 0.1524,0 0.3556,0.0381 0.2032,0.0381 0.3429,0.09525 l -0.0762,0.1778 q -0.127,-0.0508 -0.31115,-0.08255 -0.1778,-0.0381 -0.31115,-0.0381 -0.28575,0 -0.51435,0.0635 -0.2286,0.05715 -0.3937,0.1651 -0.15875,0.10795 -0.24765,0.254 -0.08255,0.14605 -0.08255,0.31115 0,0.24765 0.24765,0.4191 0.254,0.1651 0.73025,0.24765 0.55245,0.0889 0.84455,0.31115 0.29845,0.22225 0.29845,0.5461 0,0.2032 -0.1016,0.38735 -0.1016,0.1778 -0.28575,0.31115 -0.18415,0.13335 -0.45085,0.20955 -0.2667,0.0762 -0.59055,0.0762 -0.1524,0 -0.3556,-0.0381 -0.2032,-0.0381 -0.3429,-0.09525 z"
           inkscape:connector-curvature="0" />
        <path
           id="path989-5"
           style="font-style:normal;font-variant:normal;font-weight:normal;font-stretch:normal;font-family:Existence;-inkscape-font-specification:Existence;stroke-width:0.13328554px"
           d="m 62.787576,47.286962 q -0.20955,0.01905 -0.4064,0.01905 -0.53975,0 -0.94615,-0.14605 -0.40005,-0.1524 -0.6731,-0.3937 -0.2667,-0.24765 -0.40005,-0.5588 -0.13335,-0.3175 -0.13335,-0.6477 0,-0.3302 0.13335,-0.64135 0.13335,-0.3175 0.40005,-0.56515 0.27305,-0.24765 0.6731,-0.3937 0.4064,-0.1524 0.94615,-0.1524 0.19685,0 0.4064,0.01905 l -0.0127,0.1905 q -0.20955,-0.01905 -0.3937,-0.01905 -0.48895,0 -0.85725,0.1397 -0.3683,0.13335 -0.61595,0.3556 -0.2413,0.2159 -0.3683,0.4953 -0.12065,0.2794 -0.12065,0.5715 0,0.2921 0.12065,0.5715 0.127,0.2794 0.3683,0.50165 0.24765,0.2159 0.61595,0.34925 0.3683,0.13335 0.85725,0.13335 0.18415,0 0.3937,-0.01905 z"
           inkscape:connector-curvature="0" />
        <path
           id="path991-6"
           style="font-style:normal;font-variant:normal;font-weight:normal;font-stretch:normal;font-family:Existence;-inkscape-font-specification:Existence;stroke-width:0.13328554px"
           d="m 63.72043,41.591012 v 2.54 q 0.22225,-0.1651 0.4953,-0.24765 0.2794,-0.0889 0.56515,-0.0889 0.20955,0 0.4064,0.0508 0.2032,0.0508 0.37465,0.15875 0.1778,0.1016 0.31115,0.2667 0.1397,0.15875 0.22225,0.37465 0.08255,0.20955 0.08255,0.4445 v 2.1717 h -0.1905 v -2.159 q 0,-0.2032 -0.06985,-0.38735 -0.1397,-0.37465 -0.4572,-0.55245 -0.3175,-0.1778 -0.6858,-0.1778 -0.2921,0 -0.5715,0.1016 -0.27305,0.1016 -0.4826,0.28575 v 2.88925 h -0.1905 v -5.67055 z"
           inkscape:connector-curvature="0" />
        <path
           id="path993-2"
           style="font-style:normal;font-variant:normal;font-weight:normal;font-stretch:normal;font-family:Existence;-inkscape-font-specification:Existence;stroke-width:0.13328554px"
           d="m 69.428881,47.261562 q -0.10795,0.0127 -0.20955,0.01905 -0.1016,0.0064 -0.19685,0.0064 -0.52705,0 -0.93345,-0.14605 -0.40005,-0.1524 -0.6731,-0.3937 -0.2667,-0.2413 -0.4064,-0.55245 -0.13335,-0.3175 -0.13335,-0.6477 0,-0.4953 0.1524,-0.83185 0.15875,-0.33655 0.38735,-0.53975 0.2286,-0.2032 0.48895,-0.2921 0.2667,-0.0889 0.4826,-0.0889 0.33655,0 0.60325,0.127 0.2667,0.12065 0.4445,0.33655 0.18415,0.2159 0.2794,0.508 0.09525,0.2921 0.09525,0.62865 h -2.73685 q -0.0063,0.0381 -0.0063,0.0762 0,0.0381 0,0.0762 0,0.28575 0.12065,0.56515 0.12065,0.27305 0.36195,0.4953 0.24765,0.2159 0.61595,0.34925 0.37465,0.13335 0.8763,0.13335 0.18415,0 0.38735,-0.01905 z m -1.0414,-3.2766 q -0.2032,0 -0.41275,0.0762 -0.20955,0.06985 -0.3937,0.22225 -0.1778,0.1524 -0.31115,0.381 -0.127,0.2286 -0.1778,0.53975 h 2.5146 q 0,-0.19685 -0.08255,-0.41275 -0.0762,-0.2159 -0.2286,-0.3937 -0.1524,-0.18415 -0.381,-0.29845 -0.2286,-0.1143 -0.52705,-0.1143 z"
           inkscape:connector-curvature="0" />
        <path
           id="path995-9"
           style="font-style:normal;font-variant:normal;font-weight:normal;font-stretch:normal;font-family:Existence;-inkscape-font-specification:Existence;stroke-width:0.13328554px"
           d="m 73.432556,47.179012 -2.1209,-1.67005 2.1209,-1.56845 -0.1143,-0.1524 -2.5781,1.89865 v -4.09575 h -0.1905 v 5.67055 h 0.1905 v -1.3335 l 0.41275,-0.3048 2.16535,1.70815 z"
           inkscape:connector-curvature="0" />
      </g>
    </g>
  </g>
</svg>
