<?xml version="1.0" encoding="UTF-8" standalone="no"?>
<!-- Created with Inkscape (http://www.inkscape.org/) -->

<svg
   xmlns:dc="http://purl.org/dc/elements/1.1/"
   xmlns:cc="http://creativecommons.org/ns#"
   xmlns:rdf="http://www.w3.org/1999/02/22-rdf-syntax-ns#"
   xmlns:svg="http://www.w3.org/2000/svg"
   xmlns="http://www.w3.org/2000/svg"
   xmlns:sodipodi="http://sodipodi.sourceforge.net/DTD/sodipodi-0.dtd"
   xmlns:inkscape="http://www.inkscape.org/namespaces/inkscape"
   width="85mm"
   height="55mm"
   viewBox="0 0 85 55"
   version="1.1"
   id="svg8"
   inkscape:version="0.92.5 (0.92.5+68)"
   sodipodi:docname="passchek_logo.svg">
  <defs
     id="defs2" />
  <sodipodi:namedview
     id="base"
     pagecolor="#ffffff"
     bordercolor="#666666"
     borderopacity="1.0"
     inkscape:pageopacity="0.0"
     inkscape:pageshadow="2"
     inkscape:zoom="1.7554687"
     inkscape:cx="180.30062"
     inkscape:cy="118.35061"
     inkscape:document-units="mm"
     inkscape:current-layer="layer1"
     showgrid="false"
     inkscape:window-width="1366"
     inkscape:window-height="744"
     inkscape:window-x="0"
     inkscape:window-y="24"
     inkscape:window-maximized="1" />
  <metadata
     id="metadata5">
    <rdf:RDF>
      <cc:Work
         rdf:about="">
        <dc:format>image/svg+xml</dc:format>
        <dc:type
           rdf:resource="http://purl.org/dc/dcmitype/StillImage" />
        <dc:title></dc:title>
      </cc:Work>
    </rdf:RDF>
  </metadata>
  <g
     inkscape:label="Layer 1"
     inkscape:groupmode="layer"
     id="layer1"
     transform="translate(0,-242)">
    <g
       id="g1033"
       transform="matrix(2.4711614,0,0,2.4711614,-109.16368,142.53991)"
       inkscape:export-filename="/home/edyatl/Документы/coding/python/passchek/passchek_logo.png"
       inkscape:export-xdpi="96"
       inkscape:export-ydpi="96"
       style="stroke-width:0.404668">
      <g
         id="text817-84-4"
         style="font-style:normal;font-variant:normal;font-weight:normal;font-stretch:normal;font-size:4.23333311px;line-height:125%;font-family:cmex10;-inkscape-font-specification:cmex10;letter-spacing:0px;word-spacing:0px;fill:#000000;fill-opacity:1;stroke:none;stroke-width:0.1070684px;stroke-linecap:butt;stroke-linejoin:miter;stroke-opacity:1"
         transform="scale(-1,1)"
         aria-label="********">
        <path
           id="path998"
           style="font-style:normal;font-variant:normal;font-weight:normal;font-stretch:normal;font-size:4.23333311px;font-family:cmex10;-inkscape-font-specification:cmex10;fill:#0000ff;stroke-width:0.1070684px"
           d="m -72.759215,60.927954 -2.095996,-6.20944 q -0.0083,-0.03721 -0.0083,-0.04754 0,-0.02067 0.0083,-0.04547 l 2.095996,-6.215641 q 0.03721,-0.08888 0.130224,-0.08888 0.05374,0 0.09508,0.04134 0.04134,0.04134 0.04134,0.09508 0,0.02274 -0.01033,0.04961 l -2.077393,6.163965 2.077393,6.163964 q 0.01033,0.02067 0.01033,0.04548 0,0.05374 -0.04134,0.09508 -0.04134,0.04134 -0.09508,0.04134 -0.08682,0 -0.130224,-0.08888 z"
           inkscape:connector-curvature="0" />
        <path
           id="path1000"
           style="font-style:normal;font-variant:normal;font-weight:normal;font-stretch:normal;font-size:4.23333311px;font-family:cmex10;-inkscape-font-specification:cmex10;fill:#0000ff;stroke-width:0.1070684px"
           d="m -69.352705,60.927954 -2.095996,-6.20944 q -0.0083,-0.03721 -0.0083,-0.04754 0,-0.02067 0.0083,-0.04547 l 2.095996,-6.215641 q 0.03721,-0.08888 0.130225,-0.08888 0.05374,0 0.09508,0.04134 0.04134,0.04134 0.04134,0.09508 0,0.02274 -0.01033,0.04961 l -2.077392,6.163965 2.077392,6.163964 q 0.01033,0.02067 0.01033,0.04548 0,0.05374 -0.04134,0.09508 -0.04134,0.04134 -0.09508,0.04134 -0.08682,0 -0.130225,-0.08888 z"
           inkscape:connector-curvature="0" />
        <path
           id="path1002"
           style="font-style:normal;font-variant:normal;font-weight:normal;font-stretch:normal;font-size:4.23333311px;font-family:cmex10;-inkscape-font-specification:cmex10;fill:#0000ff;stroke-width:0.1070684px"
           d="m -65.946195,60.927954 -2.095996,-6.20944 q -0.0083,-0.03721 -0.0083,-0.04754 0,-0.02067 0.0083,-0.04547 l 2.095996,-6.215641 q 0.03721,-0.08888 0.130225,-0.08888 0.05374,0 0.09508,0.04134 0.04134,0.04134 0.04134,0.09508 0,0.02274 -0.01034,0.04961 l -2.077392,6.163965 2.077392,6.163964 q 0.01034,0.02067 0.01034,0.04548 0,0.05374 -0.04134,0.09508 -0.04134,0.04134 -0.09508,0.04134 -0.08682,0 -0.130225,-0.08888 z"
           inkscape:connector-curvature="0" />
        <path
           id="path1004"
           style="font-style:normal;font-variant:normal;font-weight:normal;font-stretch:normal;font-size:4.23333311px;font-family:cmex10;-inkscape-font-specification:cmex10;fill:#0000ff;stroke-width:0.1070684px"
           d="m -62.539684,60.927954 -2.095996,-6.20944 q -0.0083,-0.03721 -0.0083,-0.04754 0,-0.02067 0.0083,-0.04547 l 2.095996,-6.215641 q 0.03721,-0.08888 0.130224,-0.08888 0.05374,0 0.09509,0.04134 0.04134,0.04134 0.04134,0.09508 0,0.02274 -0.01033,0.04961 l -2.077393,6.163965 2.077393,6.163964 q 0.01033,0.02067 0.01033,0.04548 0,0.05374 -0.04134,0.09508 -0.04134,0.04134 -0.09509,0.04134 -0.08682,0 -0.130224,-0.08888 z"
           inkscape:connector-curvature="0" />
        <path
           id="path1006"
           style="font-style:normal;font-variant:normal;font-weight:normal;font-stretch:normal;font-size:4.23333311px;font-family:cmex10;-inkscape-font-specification:cmex10;fill:#0000ff;stroke-width:0.1070684px"
           d="m -59.133174,60.927954 -2.095996,-6.20944 q -0.0083,-0.03721 -0.0083,-0.04754 0,-0.02067 0.0083,-0.04547 l 2.095996,-6.215641 q 0.03721,-0.08888 0.130225,-0.08888 0.05374,0 0.09508,0.04134 0.04134,0.04134 0.04134,0.09508 0,0.02274 -0.01034,0.04961 l -2.077392,6.163965 2.077392,6.163964 q 0.01034,0.02067 0.01034,0.04548 0,0.05374 -0.04134,0.09508 -0.04134,0.04134 -0.09508,0.04134 -0.08682,0 -0.130225,-0.08888 z"
           inkscape:connector-curvature="0" />
        <path
           id="path1008"
           style="font-style:normal;font-variant:normal;font-weight:normal;font-stretch:normal;font-size:4.23333311px;font-family:cmex10;-inkscape-font-specification:cmex10;fill:#0000ff;stroke-width:0.1070684px"
           d="m -55.726665,60.927954 -2.095996,-6.20944 q -0.0083,-0.03721 -0.0083,-0.04754 0,-0.02067 0.0083,-0.04547 l 2.095996,-6.215641 q 0.03721,-0.08888 0.130225,-0.08888 0.05374,0 0.09509,0.04134 0.04134,0.04134 0.04134,0.09508 0,0.02274 -0.01034,0.04961 l -2.077392,6.163965 2.077392,6.163964 q 0.01034,0.02067 0.01034,0.04548 0,0.05374 -0.04134,0.09508 -0.04134,0.04134 -0.09509,0.04134 -0.08682,0 -0.130225,-0.08888 z"
           inkscape:connector-curvature="0" />
        <path
           id="path1010"
           style="font-style:normal;font-variant:normal;font-weight:normal;font-stretch:normal;font-size:4.23333311px;font-family:cmex10;-inkscape-font-specification:cmex10;fill:#0000ff;stroke-width:0.1070684px"
           d="m -52.320153,60.927954 -2.095996,-6.20944 q -0.0083,-0.03721 -0.0083,-0.04754 0,-0.02067 0.0083,-0.04547 l 2.095996,-6.215641 q 0.03721,-0.08888 0.130224,-0.08888 0.05374,0 0.09508,0.04134 0.04134,0.04134 0.04134,0.09508 0,0.02274 -0.01033,0.04961 l -2.077393,6.163965 2.077393,6.163964 q 0.01033,0.02067 0.01033,0.04548 0,0.05374 -0.04134,0.09508 -0.04134,0.04134 -0.09508,0.04134 -0.08682,0 -0.130224,-0.08888 z"
           inkscape:connector-curvature="0" />
        <path
           id="path1012"
           style="font-style:normal;font-variant:normal;font-weight:normal;font-stretch:normal;font-size:4.23333311px;font-family:cmex10;-inkscape-font-specification:cmex10;fill:#0000ff;stroke-width:0.1070684px"
           d="m -48.913642,60.927954 -2.095996,-6.20944 q -0.0083,-0.03721 -0.0083,-0.04754 0,-0.02067 0.0083,-0.04547 l 2.095996,-6.215641 q 0.03721,-0.08888 0.130225,-0.08888 0.05374,0 0.09508,0.04134 0.04134,0.04134 0.04134,0.09508 0,0.02274 -0.01034,0.04961 l -2.077392,6.163965 2.077392,6.163964 q 0.01034,0.02067 0.01034,0.04548 0,0.05374 -0.04134,0.09508 -0.04134,0.04134 -0.09508,0.04134 -0.08682,0 -0.130225,-0.08888 z"
           inkscape:connector-curvature="0" />
      </g>
      <g
         id="text817-8"
         style="font-style:normal;font-variant:normal;font-weight:normal;font-stretch:normal;font-size:6.3499999px;line-height:125%;font-family:Existence;-inkscape-font-specification:Existence;letter-spacing:0px;word-spacing:0px;fill:#000000;fill-opacity:1;stroke:none;stroke-width:0.1070684px;stroke-linecap:butt;stroke-linejoin:miter;stroke-opacity:1"
         aria-label="passchek">
        <path
           id="path981"
           style="font-style:normal;font-variant:normal;font-weight:normal;font-stretch:normal;font-family:Existence;-inkscape-font-specification:Existence;stroke-width:0.1070684px"
           d="m 47.679735,49.122112 v -5.28955 q 0.127,-0.0127 0.254,-0.0127 0.127,-0.0063 0.23495,-0.0063 0.53975,0 0.9398,0.1524 0.4064,0.14605 0.6731,0.38735 0.27305,0.2413 0.4064,0.5588 0.13335,0.31115 0.13335,0.635 0,0.3302 -0.13335,0.64135 -0.13335,0.31115 -0.4064,0.5588 -0.2667,0.2413 -0.6731,0.3937 -0.4064,0.14605 -0.94615,0.14605 -0.06985,0 -0.1397,-0.0064 -0.06985,0 -0.1524,-0.0063 v 1.84785 z m 0.48895,-5.1181 q -0.06985,0 -0.14605,0 -0.06985,0 -0.1524,0.0063 v 3.0734 q 0.0762,0.0063 0.14605,0.0127 0.0762,0 0.14605,0 0.4953,0 0.8636,-0.13335 0.3683,-0.13335 0.6096,-0.34925 0.24765,-0.22225 0.3683,-0.4953 0.127,-0.2794 0.127,-0.5715 0,-0.2921 -0.127,-0.56515 -0.12065,-0.2794 -0.3683,-0.4953 -0.2413,-0.2159 -0.6096,-0.34925 -0.3683,-0.13335 -0.85725,-0.13335 z"
           inkscape:connector-curvature="0" />
        <path
           id="path983"
           style="font-style:normal;font-variant:normal;font-weight:normal;font-stretch:normal;font-family:Existence;-inkscape-font-specification:Existence;stroke-width:0.1070684px"
           d="m 51.319873,44.264362 q 0.23495,-0.22225 0.5207,-0.3429 0.28575,-0.127 0.6477,-0.127 0.18415,0 0.381,0.0635 0.2032,0.0635 0.3683,0.2159 0.17145,0.1524 0.2794,0.4064 0.1143,0.24765 0.1143,0.61595 v 2.16535 h -0.1905 v -0.3302 q -0.2286,0.20955 -0.5207,0.3048 -0.28575,0.0889 -0.59055,0.0889 -0.2667,0 -0.51435,-0.0889 -0.2413,-0.0889 -0.42545,-0.24765 -0.18415,-0.1651 -0.29845,-0.3937 -0.10795,-0.23495 -0.10795,-0.5207 0,-0.28575 0.10795,-0.51435 0.10795,-0.2286 0.2921,-0.38735 0.1905,-0.1651 0.4318,-0.24765 0.24765,-0.0889 0.51435,-0.0889 0.3556,0 0.62865,0.127 0.2794,0.12065 0.4826,0.31115 v -0.1778 q 0,-0.3175 -0.09525,-0.52705 -0.0889,-0.2159 -0.2286,-0.3429 -0.1397,-0.13335 -0.31115,-0.18415 -0.1651,-0.05715 -0.3175,-0.05715 -0.32385,0 -0.57785,0.10795 -0.254,0.10795 -0.45085,0.29845 z m 1.00965,2.8702 q 0.31115,0 0.60325,-0.10795 0.29845,-0.1143 0.508,-0.37465 v -1.1049 q -0.20955,-0.26035 -0.4953,-0.38735 -0.2794,-0.13335 -0.61595,-0.13335 -0.2286,0 -0.43815,0.0762 -0.20955,0.06985 -0.3683,0.20955 -0.15875,0.13335 -0.254,0.3302 -0.09525,0.1905 -0.09525,0.4318 0,0.2413 0.09525,0.43815 0.09525,0.19685 0.254,0.33655 0.15875,0.1397 0.3683,0.2159 0.20955,0.06985 0.43815,0.06985 z"
           inkscape:connector-curvature="0" />
        <path
           id="path985"
           style="font-style:normal;font-variant:normal;font-weight:normal;font-stretch:normal;font-family:Existence;-inkscape-font-specification:Existence;stroke-width:0.1070684px"
           d="m 54.58536,46.994862 q 0.127,0.0508 0.3048,0.0889 0.18415,0.03175 0.3175,0.03175 0.28575,0 0.51435,-0.05715 0.2286,-0.0635 0.38735,-0.17145 0.1651,-0.10795 0.24765,-0.254 0.0889,-0.14605 0.0889,-0.31115 0,-0.24765 -0.254,-0.41275 -0.24765,-0.17145 -0.7239,-0.254 -0.55245,-0.0889 -0.8509,-0.31115 -0.2921,-0.22225 -0.2921,-0.5461 0,-0.2032 0.1016,-0.381 0.1016,-0.18415 0.28575,-0.3175 0.18415,-0.13335 0.45085,-0.20955 0.2667,-0.0762 0.59055,-0.0762 0.1524,0 0.3556,0.0381 0.2032,0.0381 0.3429,0.09525 l -0.0762,0.1778 q -0.127,-0.0508 -0.31115,-0.08255 -0.1778,-0.0381 -0.31115,-0.0381 -0.28575,0 -0.51435,0.0635 -0.2286,0.05715 -0.3937,0.1651 -0.15875,0.10795 -0.24765,0.254 -0.08255,0.14605 -0.08255,0.31115 0,0.24765 0.24765,0.4191 0.254,0.1651 0.73025,0.24765 0.55245,0.0889 0.84455,0.31115 0.29845,0.22225 0.29845,0.5461 0,0.2032 -0.1016,0.38735 -0.1016,0.1778 -0.28575,0.31115 -0.18415,0.13335 -0.45085,0.20955 -0.2667,0.0762 -0.59055,0.0762 -0.1524,0 -0.3556,-0.0381 -0.2032,-0.0381 -0.3429,-0.09525 z"
           inkscape:connector-curvature="0" />
        <path
           id="path987"
           style="font-style:normal;font-variant:normal;font-weight:normal;font-stretch:normal;font-family:Existence;-inkscape-font-specification:Existence;stroke-width:0.1070684px"
           d="m 57.537118,46.994862 q 0.127,0.0508 0.3048,0.0889 0.18415,0.03175 0.3175,0.03175 0.28575,0 0.51435,-0.05715 0.2286,-0.0635 0.38735,-0.17145 0.1651,-0.10795 0.24765,-0.254 0.0889,-0.14605 0.0889,-0.31115 0,-0.24765 -0.254,-0.41275 -0.24765,-0.17145 -0.7239,-0.254 -0.55245,-0.0889 -0.8509,-0.31115 -0.2921,-0.22225 -0.2921,-0.5461 0,-0.2032 0.1016,-0.381 0.1016,-0.18415 0.28575,-0.3175 0.18415,-0.13335 0.45085,-0.20955 0.2667,-0.0762 0.59055,-0.0762 0.1524,0 0.3556,0.0381 0.2032,0.0381 0.3429,0.09525 l -0.0762,0.1778 q -0.127,-0.0508 -0.31115,-0.08255 -0.1778,-0.0381 -0.31115,-0.0381 -0.28575,0 -0.51435,0.0635 -0.2286,0.05715 -0.3937,0.1651 -0.15875,0.10795 -0.24765,0.254 -0.08255,0.14605 -0.08255,0.31115 0,0.24765 0.24765,0.4191 0.254,0.1651 0.73025,0.24765 0.55245,0.0889 0.84455,0.31115 0.29845,0.22225 0.29845,0.5461 0,0.2032 -0.1016,0.38735 -0.1016,0.1778 -0.28575,0.31115 -0.18415,0.13335 -0.45085,0.20955 -0.2667,0.0762 -0.59055,0.0762 -0.1524,0 -0.3556,-0.0381 -0.2032,-0.0381 -0.3429,-0.09525 z"
           inkscape:connector-curvature="0" />
        <path
           id="path989"
           style="font-style:normal;font-variant:normal;font-weight:normal;font-stretch:normal;font-family:Existence;-inkscape-font-specification:Existence;stroke-width:0.1070684px"
           d="m 62.787576,47.286962 q -0.20955,0.01905 -0.4064,0.01905 -0.53975,0 -0.94615,-0.14605 -0.40005,-0.1524 -0.6731,-0.3937 -0.2667,-0.24765 -0.40005,-0.5588 -0.13335,-0.3175 -0.13335,-0.6477 0,-0.3302 0.13335,-0.64135 0.13335,-0.3175 0.40005,-0.56515 0.27305,-0.24765 0.6731,-0.3937 0.4064,-0.1524 0.94615,-0.1524 0.19685,0 0.4064,0.01905 l -0.0127,0.1905 q -0.20955,-0.01905 -0.3937,-0.01905 -0.48895,0 -0.85725,0.1397 -0.3683,0.13335 -0.61595,0.3556 -0.2413,0.2159 -0.3683,0.4953 -0.12065,0.2794 -0.12065,0.5715 0,0.2921 0.12065,0.5715 0.127,0.2794 0.3683,0.50165 0.24765,0.2159 0.61595,0.34925 0.3683,0.13335 0.85725,0.13335 0.18415,0 0.3937,-0.01905 z"
           inkscape:connector-curvature="0" />
        <path
           id="path991"
           style="font-style:normal;font-variant:normal;font-weight:normal;font-stretch:normal;font-family:Existence;-inkscape-font-specification:Existence;stroke-width:0.1070684px"
           d="m 63.72043,41.591012 v 2.54 q 0.22225,-0.1651 0.4953,-0.24765 0.2794,-0.0889 0.56515,-0.0889 0.20955,0 0.4064,0.0508 0.2032,0.0508 0.37465,0.15875 0.1778,0.1016 0.31115,0.2667 0.1397,0.15875 0.22225,0.37465 0.08255,0.20955 0.08255,0.4445 v 2.1717 h -0.1905 v -2.159 q 0,-0.2032 -0.06985,-0.38735 -0.1397,-0.37465 -0.4572,-0.55245 -0.3175,-0.1778 -0.6858,-0.1778 -0.2921,0 -0.5715,0.1016 -0.27305,0.1016 -0.4826,0.28575 v 2.88925 h -0.1905 v -5.67055 z"
           inkscape:connector-curvature="0" />
        <path
           id="path993"
           style="font-style:normal;font-variant:normal;font-weight:normal;font-stretch:normal;font-family:Existence;-inkscape-font-specification:Existence;stroke-width:0.1070684px"
           d="m 69.428881,47.261562 q -0.10795,0.0127 -0.20955,0.01905 -0.1016,0.0064 -0.19685,0.0064 -0.52705,0 -0.93345,-0.14605 -0.40005,-0.1524 -0.6731,-0.3937 -0.2667,-0.2413 -0.4064,-0.55245 -0.13335,-0.3175 -0.13335,-0.6477 0,-0.4953 0.1524,-0.83185 0.15875,-0.33655 0.38735,-0.53975 0.2286,-0.2032 0.48895,-0.2921 0.2667,-0.0889 0.4826,-0.0889 0.33655,0 0.60325,0.127 0.2667,0.12065 0.4445,0.33655 0.18415,0.2159 0.2794,0.508 0.09525,0.2921 0.09525,0.62865 h -2.73685 q -0.0063,0.0381 -0.0063,0.0762 0,0.0381 0,0.0762 0,0.28575 0.12065,0.56515 0.12065,0.27305 0.36195,0.4953 0.24765,0.2159 0.61595,0.34925 0.37465,0.13335 0.8763,0.13335 0.18415,0 0.38735,-0.01905 z m -1.0414,-3.2766 q -0.2032,0 -0.41275,0.0762 -0.20955,0.06985 -0.3937,0.22225 -0.1778,0.1524 -0.31115,0.381 -0.127,0.2286 -0.1778,0.53975 h 2.5146 q 0,-0.19685 -0.08255,-0.41275 -0.0762,-0.2159 -0.2286,-0.3937 -0.1524,-0.18415 -0.381,-0.29845 -0.2286,-0.1143 -0.52705,-0.1143 z"
           inkscape:connector-curvature="0" />
        <path
           id="path995"
           style="font-style:normal;font-variant:normal;font-weight:normal;font-stretch:normal;font-family:Existence;-inkscape-font-specification:Existence;stroke-width:0.1070684px"
           d="m 73.432556,47.179012 -2.1209,-1.67005 2.1209,-1.56845 -0.1143,-0.1524 -2.5781,1.89865 v -4.09575 h -0.1905 v 5.67055 h 0.1905 v -1.3335 l 0.41275,-0.3048 2.16535,1.70815 z"
           inkscape:connector-curvature="0" />
      </g>
    </g>
  </g>
</svg>
