<?xml version="1.0" standalone="no"?>
<!DOCTYPE svg PUBLIC "-//W3C//DTD SVG 20010904//EN"
 "http://www.w3.org/TR/2001/REC-SVG-20010904/DTD/svg10.dtd">
<svg version="1.0" xmlns="http://www.w3.org/2000/svg"
 width="700.000000pt" height="700.000000pt" viewBox="0 0 700.000000 700.000000"
 preserveAspectRatio="xMidYMid meet">
<metadata>
Created by potrace 1.11, written by Peter Selinger 2001-2013
</metadata>
<g transform="translate(0.000000,700.000000) scale(0.100000,-0.100000)"
fill="#000000" stroke="none">
<path d="M3325 6750 c-216 -126 -635 -369 -683 -396 -20 -11 -82 -47 -137 -79
-138 -80 -308 -178 -585 -338 -129 -74 -291 -168 -360 -208 -117 -67 -213
-123 -292 -167 -18 -11 -114 -66 -213 -124 -99 -57 -242 -140 -317 -184 l-138
-79 0 -1675 0 -1675 277 -160 c152 -88 292 -169 312 -180 20 -11 163 -94 319
-184 160 -93 287 -160 291 -155 5 5 23 41 40 79 16 39 34 69 40 68 5 -1 61
-18 124 -37 205 -62 479 -95 632 -76 l40 5 0 753 c0 833 6 763 -65 776 -59 10
-71 14 -180 45 -280 81 -473 183 -615 324 -106 106 -153 182 -190 312 -19 62
-25 214 -13 295 32 214 185 447 389 592 115 83 168 109 384 193 11 5 25 9 30
10 6 2 35 10 65 19 30 8 69 18 85 21 17 2 45 9 63 14 18 5 36 10 40 10 4 1 7
377 7 836 l0 835 50 1 c28 1 66 3 85 5 138 13 620 6 750 -11 19 -3 58 -7 85
-11 372 -42 855 -242 1135 -472 183 -150 361 -375 455 -576 43 -92 98 -240
109 -296 3 -14 12 -56 20 -95 63 -295 30 -640 -89 -935 -63 -154 -102 -224
-190 -344 -76 -102 -97 -127 -165 -196 -254 -257 -596 -446 -992 -549 -89 -23
-356 -68 -418 -71 -8 0 10 -14 40 -30 220 -120 382 -317 421 -513 14 -69 13
-220 -1 -282 -7 -27 -13 -59 -16 -70 -2 -11 -15 -48 -28 -82 -129 -315 -443
-549 -881 -653 -44 -11 -98 -22 -120 -26 -22 -3 -43 -8 -47 -11 -5 -2 -8 -57
-8 -121 l0 -117 -89 0 c-49 0 -93 4 -98 8 -4 5 -8 52 -9 105 -1 53 -2 99 -3
102 0 3 -72 5 -159 5 -175 1 -188 2 -442 49 -30 5 -127 31 -155 41 l-20 7 20
-14 c11 -8 56 -35 100 -60 44 -25 343 -198 665 -384 322 -185 638 -368 702
-405 l117 -67 183 105 c289 166 492 283 508 294 14 9 622 359 665 383 36 20
360 207 375 216 8 6 67 39 130 75 63 36 122 69 130 75 41 25 356 206 374 215
12 5 26 14 33 20 7 5 122 73 257 150 l246 140 0 1675 0 1676 -606 349 c-333
193 -623 360 -644 372 -21 12 -96 55 -167 96 -691 400 -1483 857 -1485 856 -2
0 -79 -45 -173 -99z"/>
<path d="M2876 6033 c-3 -4 -6 -333 -6 -732 l0 -726 167 0 c164 0 245 -7 363
-29 19 -3 46 -8 60 -10 80 -13 313 -78 329 -92 4 -3 -69 -184 -74 -184 -1 0
-27 9 -59 20 -49 16 -214 56 -311 75 -83 16 -134 19 -295 19 l-175 1 0 -754 0
-754 30 -5 c77 -14 563 -4 652 12 10 2 43 7 73 11 30 4 64 9 75 11 11 2 34 7
50 10 160 28 370 100 540 184 398 196 675 493 818 875 28 75 62 208 75 290 9
60 9 322 0 385 -32 229 -157 520 -296 690 -162 197 -344 344 -569 459 -130 65
-328 142 -432 166 -170 40 -264 57 -401 72 -71 7 -607 12 -614 6z"/>
<path d="M2635 4339 c-78 -16 -219 -55 -250 -69 -214 -94 -281 -136 -383 -239
-129 -131 -189 -259 -199 -425 -15 -255 129 -440 449 -574 87 -37 209 -79 251
-88 10 -2 27 -6 37 -9 18 -6 39 -11 89 -21 14 -3 28 -7 33 -10 11 -7 10 -53
12 734 1 391 1 712 1 711 0 -1 -18 -5 -40 -10z"/>
<path d="M2870 1931 c0 -402 3 -731 8 -731 29 1 203 46 277 71 272 94 469 252
568 454 48 99 61 156 61 265 0 185 -78 310 -270 437 -154 100 -413 197 -608
228 l-36 6 0 -730z"/>
</g>
</svg>
